<svg version="1.1"
   xmlns="http://www.w3.org/2000/svg" xmlns:xlink="http://www.w3.org/1999/xlink" xmlns:a="http://ns.adobe.com/AdobeSVGViewerExtensions/3.0/"
   x="0px" y="0px" width="922.5px" height="672.2px" viewBox="0 0 922.5 672.2"
   style="overflow:scroll;enable-background:new 0 0 922.5 672.2;" xml:space="preserve">
<style type="text/css">
  .st0{fill:#ECA442;}
  .st1{fill:#CA2627;}
  .st2{fill:#FFFFFF;}
</style>
<defs>
</defs>
<path class="st0" d="M873.8,470.9H656.1c50-49.9,80.9-118.9,80.9-195.1C737,123.5,613.5,0,461.2,0S185.5,123.5,185.5,275.8
  c0,76.2,30.9,145.2,80.9,195.1H48.7C21.8,470.9,0,492.6,0,519.5v104c0,26.9,21.8,48.7,48.7,48.7h825.2c26.9,0,48.7-21.8,48.7-48.7
  v-104C922.5,492.6,900.7,470.9,873.8,470.9z"/>
<g>
  <g>
    <path class="st1" d="M556.7,438.1c-6.8-11-13.6-22.1-20.5-33c-1.2-1.8-3-3.5-4.9-4.6c-10.1-6.2-15.8-15-16.6-26.9
      c-0.1-1.5,0-3.2-0.7-4.3c-7.1-11.6-14.3-23.2-21.6-35c-3.9,10.3-9.7,14.2-17.3,12.1c-6.3-1.7-10.4-8.1-9.4-14.6
      c1.2-8,6.9-11.3,18.5-10.8c-3.9-6.3-7.6-12.6-11.6-18.7c-0.6-1-1.9-2-3-2.2c-6.6-1.3-13.2-2.3-20.5-3.6
      c-14,21-28.5,42.9-43.3,65.2c8.6,5.1,14.7,11.9,17,21.5c2.3,9.6,0.8,18.6-5.1,26.6c-11.1,15.2-27.3,17.3-47.8,6.1
      c-4.1,6.1-8.2,12.3-12.4,18.7C427.6,480.4,509.9,468.6,556.7,438.1z M493.4,447.1c-5,5-13.4,5-18.4,0c-5.1-5.1-5.2-13.2-0.2-18.4
      c5.1-5.2,13.1-5.4,18.3-0.4C498.4,433.5,498.6,441.9,493.4,447.1z M454.4,380.6c8-13,25.2-15.8,35-5.6c5.9,6.1,5,11.6-2.6,15.4
      c-1.2,0.6-2.2,1.3-3.4,1.9c4.7,3.7,9.2,6.8,13.1,10.6c2.6,2.4,4.4,5.9,1.5,9.3c-2.9,3.4-6.6,2.1-9.5,0c-4.4-3.2-8.4-6.9-12.8-10.7
      c-0.4,1.5-0.9,3.2-1.4,4.9c-1.7,5.9-6.3,8.1-12,5.7C451,407.2,447.2,392.4,454.4,380.6z"/>
    <path class="st1" d="M433.8,227.3c3.3,5.7,6.9,11.3,10.6,17.3c10.9-9.3,22.7-11.5,35.9-6.8c13.5-20.3,26.8-40.4,40.1-60.5
      c13.3-20.1,26.7-40.2,40-60.3c-60.3-38.9-139.8-37.3-196.2-2.4c0.3,0.8,0.4,1.3,0.6,1.7c13.7,22.2,27.5,44.4,41.2,66.7
      c1.5,2.4,2.9,2.8,5.7,2.2c9.9-2,19.6,2.8,25,11.8c5.2,8.7,4.4,18.2-1.9,26.5C434.1,224.5,433.4,226.5,433.8,227.3z M509.9,117.9
      c5.2-5.4,13.5-5.5,18.7-0.2c5,5,5,13.4,0,18.4c-5.1,5.1-13.2,5.2-18.4,0.1C505,131.1,504.9,123.1,509.9,117.9z M469.9,186.6
      c4.9-5.1,13.3-5.2,18.5-0.3c5.1,4.9,5.3,13.2,0.4,18.4c-5.2,5.5-13.3,5.6-18.7,0.3C464.9,199.9,464.8,191.8,469.9,186.6z
       M410.6,163.7c-12.3-12.6-12.2-32.9,0.3-45.4c12.6-12.6,33.2-12.5,45.8,0.3c12.6,12.7,12.5,33.3-0.3,45.8
      C443.7,176.8,423.2,176.6,410.6,163.7z"/>
    <path class="st1" d="M648.6,279c-31.2,0-62.3,0-91.9,0c-3.3,4.3-6.3,8.2-9.3,12.1c1.3,0.5,2.9,0.9,4.4,1.7
      c3.9,2.2,8.1,4.1,11.3,7.1c1.5,1.4,2.2,5.4,1.3,7.4c-0.7,1.5-4.4,2.4-6.7,2.3c-2.3-0.1-4.7-1.5-6.9-2.8c-3.2-1.9-6.2-4.1-9.7-6.5
      c-0.3,1.7-0.5,3-0.6,4.3c-0.7,8-5.5,11-13.1,8.1c-8.6-3.3-13.9-12.3-12.6-22.1c0.5-4,2.2-7.9,3.5-12.4c-5.9,0-12,0-18.1,0.2
      c-0.9,0-2.3,0.8-2.6,1.6c-3.8,8.9-10.4,14.8-19.7,18.6c12.9,20.8,25.6,41.4,38.6,62.3c9.8-17.4,23.9-24.1,39.7-19.6
      c14.4,4.2,24.1,17.9,23.2,32.9c-1,17.4-12,27.2-35.5,31c6.2,10,12.3,19.8,18.5,29.8C611.4,408.1,654.9,328.9,648.6,279z
       M611.7,302.6c5-5.1,13.2-5.3,18.4-0.3c5.3,5.1,5.5,13.6,0.3,18.8c-5.1,5-13.4,5-18.5,0C606.8,316,606.7,307.8,611.7,302.6z"/>
    <path class="st1" d="M358.5,118.3c-48.6,27-93.5,107.5-86,152.7c54.2,0,108.3,0,162.6,0c0-1.5,0-3.5,0.2-5.5
      c0.2-2.1,0.1-4.7,1.2-6.3c5.1-7.9,1.7-14.2-3.1-20.5c-1.6-2.1-2.6-4.7-4.3-6.7c-1.1-1.3-3-2.5-4.6-2.7c-4.4-0.5-7-2.6-8-6.9
      c-0.4-1.7-1-3.4-1.4-5c-4.3,3.7-8.1,7.4-12.4,10.4c-3,2.1-6.7,3.8-9.9,0c-3.1-3.8-0.8-7.1,1.9-9.6c3.9-3.5,8.3-6.5,13-10.1
      c-1.5-0.8-2.8-1.5-4.1-2.2c-6.3-3.2-7.7-8.3-3.1-13.7c2.1-2.5,1.6-4.1,0.1-6.5c-13.2-21.2-26.3-42.4-39.5-63.6
      C360.2,120.8,359.3,119.5,358.5,118.3z M364.1,260.7c-12.6,12.6-33.3,12.5-45.8-0.1c-12.6-12.7-12.4-33.2,0.3-45.8
      c12.5-12.4,33-12.4,45.5,0.1C376.6,227.3,376.6,248.1,364.1,260.7z M365.9,177.2c-5,5.2-13.7,5.3-18.8,0.2c-5-5.1-5-13.3,0.1-18.4
      c5.1-5.2,13.2-5.3,18.4-0.2C370.6,163.8,370.8,172,365.9,177.2z"/>
    <path class="st1" d="M352.3,430.6c3.9-5.8,7.4-11.4,11.3-16.8c1.7-2.4,1.5-4.1,0.1-6.6c-6.6-11.6-6.3-23.4,1.2-34.4
      c7.3-10.6,17.8-15.3,30.7-13.7c3.2,0.4,4.8-0.6,6.5-3.1c12.2-18.5,24.2-37,36.8-55.3c4.2-6.1,7.2-11.3,0.4-17.3
      c-0.2-0.2-0.4-0.6-0.5-0.9c-1-3.7-3.4-4.4-7.1-4.4c-51.6,0.1-103.3,0.1-154.9,0.1c-1.6,0-3.2,0.1-4.7,0.2
      C272.1,345.2,309,401.7,352.3,430.6z M379.9,292.5c-1.9-2.9-2.4-6.4,1.1-8.9c3.3-2.3,6.3-0.9,8.4,1.6c3.6,4.2,6.8,8.9,10.5,13.7
      c0.8-1.3,1.8-2.9,2.8-4.6c2.8-4.7,7.2-5.9,11.8-3c8,4.9,10.9,16.2,6.5,25.8c-6,13-21.9,18.7-33.6,11.7c-2.4-1.4-4.6-3.4-6.2-5.7
      c-5.6-7.9-3.2-13.7,6.2-15.9c0.9-0.2,1.9-0.5,2.7-0.8C386.5,301.5,382.9,297.2,379.9,292.5z M345.5,333.6c5-5.1,13.3-5.2,18.4-0.2
      c5.2,5,5.3,13.2,0.3,18.4c-5.1,5.3-13,5.5-18.3,0.5C340.5,347.2,340.3,338.8,345.5,333.6z M316.9,310.6
      c-0.6,5.9-0.9,11.3-1.9,16.7c-0.6,3.6-2.3,6.9-6.9,6.4c-4.6-0.5-5.5-4.2-5.2-7.8c0.3-5.4,1.3-10.8,2.1-16.6
      c-1.6,0.5-3.4,1-5.2,1.5c-5.6,1.6-10-1.1-10.9-6.9c-0.9-5.4,0.3-10.3,3.5-14.7c10.2-13.8,33.3-11.9,40.6,3.6
      c1.9,4.1,2.2,9.5,1.5,14c-1.3,8-7.2,10-14.1,5.8C319.3,311.8,318.1,311.2,316.9,310.6z"/>
    <path class="st1" d="M667.3,262.9c-0.6-67.6-41.1-125.1-83-150.9c-8.4,12.6-16.8,25.3-25.4,38.4c2.2,0.3,3.7,0.4,5.1,0.7
      c12.1,2.1,21.1,13.2,20.5,25.3c-0.4,7.8-4.1,13.6-11.1,17.1c-4.9,2.4-9.4,0.5-11.4-4.5c-0.7-1.8-1.4-3.7-2.1-5.6
      c-4.1,4.1-7.8,8.2-11.9,11.7c-2.7,2.3-6.2,3.9-9.4,0.6c-3.4-3.5-1.4-7,1.1-9.7c3.6-3.8,7.7-7.2,11.8-11c-6.7-3.6-6.7-3.6-10.6,2.2
      c-6.9,10.4-13.9,20.8-20.8,31.2c-5.2,7.9-10.4,15.8-15,22.8c3.8,5.4,8,9.8,10.2,14.9c2.2,5.1,2.6,11.1,3.9,17.2
      c4.7-0.1,9.9,0.1,15-0.3c5.2-0.5,10.4-1.3,15.4-2.6c5.4-1.3,10.4-1.3,15.6,0.9c2.3,1,5,1.7,7.6,1.7c29.8,0.1,59.6,0.1,89.5,0.1
      C664.1,263,665.7,262.9,667.3,262.9z M629.6,245.5c-12.4,12.7-33.2,12.8-45.9,0.3c-12.6-12.5-12.6-33.2,0-45.8
      c12.6-12.7,33.1-12.6,45.8,0.1C641.9,212.5,641.9,232.8,629.6,245.5z"/>
    <path class="st1" d="M456.5,472.1c-37.2-0.7-71.4-11.4-103-31.6c-5.5,8.3-10.8,16.3-16,24.2c81,53.9,180.2,42.4,238.4,4.3
      c-5-8-9.9-16-15.1-24.3C528.2,463.6,493.6,472.8,456.5,472.1z"/>
    <path class="st1" d="M564.9,110.5c5.3-8,10.4-15.7,15.8-23.8C505.2,37.2,407.1,43.7,345,84c5,8.1,10.1,16.2,14.9,24
      C429.2,70.8,497.2,71.8,564.9,110.5z"/>
    <path class="st1" d="M656.3,278.8c-2.6,68.8-32.6,123-90.1,162.6c5.2,8.3,10.1,16.3,15.1,24.3c57.3-29,111.8-127.9,103.6-187
      C675.4,278.8,666,278.8,656.3,278.8z"/>
    <path class="st1" d="M264.6,270.5c3.6-67.3,33.8-120.3,89.9-158.9c-4.5-7.3-8.9-14.4-13.2-21.5c-0.6-1-1.4-1.8-2-2.7
      c-55.3,27-110.6,125.7-103.4,183.1C245.6,270.5,255.1,270.5,264.6,270.5z"/>
    <path class="st1" d="M264.6,279c-9.8,0-19.2,0-29.1,0c0.5,41.6,11.6,80.4,33.7,116.1c16.3,26.3,37.1,48.4,62.9,66.1
      c5.5-8.3,10.7-16.1,16-24.2C294.6,397.1,266.8,344.4,264.6,279z"/>
    <path class="st1" d="M667.7,145.2c-16.7-25.4-37.5-46.8-63-63.9c-5.5,8.4-10.7,16.3-15.9,24.2c54.1,39,82.8,91.3,86.2,157.9
      c8.4-0.1,16.4-0.2,24.4-0.3c1.3,0,2.6-0.1,4.3-0.1C705.6,229.7,690.3,179.4,667.7,145.2z"/>
  </g>
</g>
<g>
  <g>
    <path class="st1" d="M84.4,606.2H57.1v-70h27.3V606.2z"/>
    <path class="st1" d="M146.4,536.2l8,24.9l17.5-23.5c0.6-0.8,1-1.3,1.3-1.5c0.3-0.2,0.7-0.4,1.3-0.4c0.6,0,1.3,0.6,2.2,1.9
      l16.3,23.2l7.9-24.7H226l-22.9,68.2c-1,2.9-2.7,4.4-5,4.4c-2.4,0-4.5-1.3-6.4-4l-19.6-28.3l-21.1,28.4c-1.9,2.5-4,3.8-6.4,3.8
      c-2.3,0-4-1.5-5.1-4.4l-24.6-68H146.4z"/>
    <path class="st1" d="M230.4,606.2l34.8-66.5c1.2-2.4,3.4-3.9,6.6-4.7c0.9-0.2,2.1-0.4,3.5-0.4s2.9,0.4,4.5,1.2s2.9,2,3.8,3.7
      l37.4,66.7h-35.6l-2.8-6.9h-18.9l-2.4,6.9H230.4z M265.9,585.4h14.2l-6.7-18.9L265.9,585.4z"/>
    <path class="st1" d="M327.7,536.2h7.1l38.2,27.3v-27.3h24.7v70h-9.4l-36-24.1v24.1h-24.6V536.2z"/>
    <path class="st1" d="M405.6,536.2h66.3v22.7h-19.5v47.3h-27.3v-47.3h-19.5V536.2z"/>
    <path class="st1" d="M502.1,536.4c14.5-1.4,25.5-2.1,32.9-2.1c7.4,0,13.3,0.5,17.6,1.6c4.3,1.1,7.9,2.8,10.7,5
      c5.4,4.4,8.2,11.7,8.2,21.9c0,4.6-0.9,8.7-2.6,12.5c-1.7,3.8-4.1,7.1-7.1,9.8c-3,2.7-6.5,4.8-10.5,6.4c-4,1.5-8.3,2.3-12.8,2.3
      l-7.8-0.2v12.7h-28.6V536.4z M541.7,552.4c-2.5,0-6.2,1.7-11,5.2v16.5l5.1-2.5c3.4-1.7,5.8-3.3,7.1-4.8c2.5-2.8,3.8-5.7,3.8-8.5
      s-1-4.7-2.8-5.6C543.1,552.6,542.4,552.4,541.7,552.4z"/>
    <path class="st1" d="M606.2,606.2h-27.3v-70h27.3V606.2z"/>
    <path class="st1" d="M643.1,557.4H619v-21.2h68.2v5.3l-27,44.6h27v20h-70.9v-4L643.1,557.4z"/>
    <path class="st1" d="M724,557.4h-24.2v-21.2h68.2v5.3l-27,44.6h27v20h-70.9v-4L724,557.4z"/>
    <path class="st1" d="M774.7,606.2l34.8-66.5c1.2-2.4,3.4-3.9,6.6-4.7c0.9-0.2,2.1-0.4,3.5-0.4s2.9,0.4,4.5,1.2s2.9,2,3.8,3.7
      l37.4,66.7h-35.6l-2.8-6.9h-18.9l-2.4,6.9H774.7z M810.2,585.4h14.2l-6.7-18.9L810.2,585.4z"/>
  </g>
  <g>
    <path class="st2" d="M88.4,610.2H61.1v-70h27.3V610.2z"/>
    <path class="st2" d="M150.4,540.2l8,24.9l17.5-23.5c0.6-0.8,1-1.3,1.3-1.5c0.3-0.2,0.7-0.4,1.3-0.4c0.6,0,1.3,0.6,2.2,1.9
      l16.3,23.2l7.9-24.7H230l-22.9,68.2c-1,2.9-2.7,4.4-5,4.4c-2.4,0-4.5-1.3-6.4-4l-19.6-28.3l-21.1,28.4c-1.9,2.5-4,3.8-6.4,3.8
      c-2.3,0-4-1.5-5.1-4.4l-24.6-68H150.4z"/>
    <path class="st2" d="M234.4,610.2l34.8-66.5c1.2-2.4,3.4-3.9,6.6-4.7c0.9-0.2,2.1-0.4,3.5-0.4s2.9,0.4,4.5,1.2s2.9,2,3.8,3.7
      l37.4,66.7h-35.6l-2.8-6.9h-18.9l-2.4,6.9H234.4z M269.9,589.4h14.2l-6.7-18.9L269.9,589.4z"/>
    <path class="st2" d="M331.7,540.2h7.1l38.2,27.3v-27.3h24.7v70h-9.4l-36-24.1v24.1h-24.6V540.2z"/>
    <path class="st2" d="M409.6,540.2h66.3v22.7h-19.5v47.3h-27.3v-47.3h-19.5V540.2z"/>
    <path class="st2" d="M506.1,540.4c14.5-1.4,25.5-2.1,32.9-2.1c7.4,0,13.3,0.5,17.6,1.6c4.3,1.1,7.9,2.8,10.7,5
      c5.4,4.4,8.2,11.7,8.2,21.9c0,4.6-0.9,8.7-2.6,12.5c-1.7,3.8-4.1,7.1-7.1,9.8c-3,2.7-6.5,4.8-10.5,6.4c-4,1.5-8.3,2.3-12.8,2.3
      l-7.8-0.2v12.7h-28.6V540.4z M545.7,556.4c-2.5,0-6.2,1.7-11,5.2v16.5l5.1-2.5c3.4-1.7,5.8-3.3,7.1-4.8c2.5-2.8,3.8-5.7,3.8-8.5
      s-1-4.7-2.8-5.6C547.1,556.6,546.4,556.4,545.7,556.4z"/>
    <path class="st2" d="M610.2,610.2h-27.3v-70h27.3V610.2z"/>
    <path class="st2" d="M647.1,561.4H623v-21.2h68.2v5.3l-27,44.6h27v20h-70.9v-4L647.1,561.4z"/>
    <path class="st2" d="M728,561.4h-24.2v-21.2h68.2v5.3l-27,44.6h27v20h-70.9v-4L728,561.4z"/>
    <path class="st2" d="M778.7,610.2l34.8-66.5c1.2-2.4,3.4-3.9,6.6-4.7c0.9-0.2,2.1-0.4,3.5-0.4s2.9,0.4,4.5,1.2s2.9,2,3.8,3.7
      l37.4,66.7h-35.6l-2.8-6.9h-18.9l-2.4,6.9H778.7z M814.2,589.4h14.2l-6.7-18.9L814.2,589.4z"/>
  </g>
  <g>
    <path class="st1" d="M84.4,606.2H57.1v-70h27.3V606.2z"/>
    <path class="st1" d="M146.4,536.2l8,24.9l17.5-23.5c0.6-0.8,1-1.3,1.3-1.5c0.3-0.2,0.7-0.4,1.3-0.4c0.6,0,1.3,0.6,2.2,1.9
      l16.3,23.2l7.9-24.7H226l-22.9,68.2c-1,2.9-2.7,4.4-5,4.4c-2.4,0-4.5-1.3-6.4-4l-19.6-28.3l-21.1,28.4c-1.9,2.5-4,3.8-6.4,3.8
      c-2.3,0-4-1.5-5.1-4.4l-24.6-68H146.4z"/>
    <path class="st1" d="M230.4,606.2l34.8-66.5c1.2-2.4,3.4-3.9,6.6-4.7c0.9-0.2,2.1-0.4,3.5-0.4s2.9,0.4,4.5,1.2s2.9,2,3.8,3.7
      l37.4,66.7h-35.6l-2.8-6.9h-18.9l-2.4,6.9H230.4z M265.9,585.4h14.2l-6.7-18.9L265.9,585.4z"/>
    <path class="st1" d="M327.7,536.2h7.1l38.2,27.3v-27.3h24.7v70h-9.4l-36-24.1v24.1h-24.6V536.2z"/>
    <path class="st1" d="M405.6,536.2h66.3v22.7h-19.5v47.3h-27.3v-47.3h-19.5V536.2z"/>
    <path class="st1" d="M502.1,536.4c14.5-1.4,25.5-2.1,32.9-2.1c7.4,0,13.3,0.5,17.6,1.6c4.3,1.1,7.9,2.8,10.7,5
      c5.4,4.4,8.2,11.7,8.2,21.9c0,4.6-0.9,8.7-2.6,12.5c-1.7,3.8-4.1,7.1-7.1,9.8c-3,2.7-6.5,4.8-10.5,6.4c-4,1.5-8.3,2.3-12.8,2.3
      l-7.8-0.2v12.7h-28.6V536.4z M541.7,552.4c-2.5,0-6.2,1.7-11,5.2v16.5l5.1-2.5c3.4-1.7,5.8-3.3,7.1-4.8c2.5-2.8,3.8-5.7,3.8-8.5
      s-1-4.7-2.8-5.6C543.1,552.6,542.4,552.4,541.7,552.4z"/>
    <path class="st1" d="M606.2,606.2h-27.3v-70h27.3V606.2z"/>
    <path class="st1" d="M643.1,557.4H619v-21.2h68.2v5.3l-27,44.6h27v20h-70.9v-4L643.1,557.4z"/>
    <path class="st1" d="M724,557.4h-24.2v-21.2h68.2v5.3l-27,44.6h27v20h-70.9v-4L724,557.4z"/>
    <path class="st1" d="M774.7,606.2l34.8-66.5c1.2-2.4,3.4-3.9,6.6-4.7c0.9-0.2,2.1-0.4,3.5-0.4s2.9,0.4,4.5,1.2s2.9,2,3.8,3.7
      l37.4,66.7h-35.6l-2.8-6.9h-18.9l-2.4,6.9H774.7z M810.2,585.4h14.2l-6.7-18.9L810.2,585.4z"/>
  </g>
</g>
</svg>
