<!-- Generator: Adobe Illustrator 22.0.0, SVG Export Plug-In  -->
<svg version="1.1"
	 xmlns="http://www.w3.org/2000/svg" xmlns:xlink="http://www.w3.org/1999/xlink" xmlns:a="http://ns.adobe.com/AdobeSVGViewerExtensions/3.0/"
	 x="0px" y="0px" width="320px" height="320px" viewBox="0 0 320 320" style="overflow:scroll;enable-background:new 0 0 320 320;"
	 xml:space="preserve">
<style type="text/css">
	.st0{fill:#EEEEEE;}
	.st1{opacity:0.6;fill:#A5A79A;}
</style>
<defs>
</defs>
<rect class="st0" width="320" height="320"/>
<g>
	<path class="st1" d="M198.7,231.7c-3-4.9-6-9.8-9.1-14.6c-0.5-0.8-1.3-1.5-2.2-2.1c-4.5-2.8-7-6.7-7.4-11.9c0-0.7,0-1.4-0.3-1.9
		c-3.1-5.2-6.3-10.3-9.6-15.5c-1.7,4.6-4.3,6.3-7.7,5.4c-2.8-0.8-4.6-3.6-4.2-6.5c0.5-3.5,3-5,8.2-4.8c-1.7-2.8-3.4-5.6-5.1-8.3
		c-0.3-0.4-0.8-0.9-1.3-1c-2.9-0.6-5.9-1-9.1-1.6c-6.2,9.3-12.6,19-19.2,28.9c3.8,2.3,6.5,5.3,7.5,9.5c1,4.3,0.3,8.3-2.3,11.8
		c-4.9,6.7-12.1,7.7-21.2,2.7c-1.8,2.7-3.6,5.4-5.5,8.3C141.4,250.5,177.9,245.3,198.7,231.7z M170.6,235.7c-2.2,2.2-5.9,2.2-8.2,0
		c-2.3-2.3-2.3-5.8-0.1-8.2c2.3-2.3,5.8-2.4,8.1-0.2C172.8,229.7,172.9,233.4,170.6,235.7z M153.3,206.2c3.6-5.8,11.2-7,15.5-2.5
		c2.6,2.7,2.2,5.2-1.1,6.8c-0.5,0.3-1,0.6-1.5,0.9c2.1,1.6,4.1,3,5.8,4.7c1.1,1.1,2,2.6,0.7,4.1c-1.3,1.5-2.9,0.9-4.2,0
		c-2-1.4-3.7-3.1-5.7-4.8c-0.2,0.7-0.4,1.4-0.6,2.2c-0.8,2.6-2.8,3.6-5.3,2.5C151.8,218,150.1,211.5,153.3,206.2z"/>
	<path class="st1" d="M144.2,138.1c1.5,2.5,3.1,5,4.7,7.7c4.8-4.1,10.1-5.1,15.9-3c6-9,11.9-18,17.8-26.9
		c5.9-8.9,11.8-17.8,17.8-26.8c-26.8-17.3-62.1-16.6-87.1-1.1c0.1,0.3,0.2,0.6,0.3,0.7c6.1,9.9,12.2,19.7,18.3,29.6
		c0.7,1.1,1.3,1.2,2.5,1c4.4-0.9,8.7,1.2,11.1,5.2c2.3,3.8,2,8.1-0.9,11.8C144.3,136.9,143.9,137.8,144.2,138.1z M177.9,89.6
		c2.3-2.4,6-2.4,8.3-0.1c2.2,2.2,2.2,5.9,0,8.2c-2.2,2.3-5.9,2.3-8.2,0.1C175.8,95.4,175.7,91.9,177.9,89.6z M160.1,120.1
		c2.2-2.2,5.9-2.3,8.2-0.1c2.3,2.2,2.4,5.9,0.2,8.2c-2.3,2.4-5.9,2.5-8.3,0.1C157.9,126,157.9,122.4,160.1,120.1z M133.9,109.9
		c-5.5-5.6-5.4-14.6,0.1-20.2c5.6-5.6,14.7-5.5,20.3,0.1c5.6,5.7,5.5,14.8-0.1,20.3C148.5,115.7,139.4,115.6,133.9,109.9z"/>
	<path class="st1" d="M239.5,161.1c-13.8,0-27.6,0-40.8,0c-1.5,1.9-2.8,3.6-4.1,5.4c0.6,0.2,1.3,0.4,1.9,0.7c1.7,1,3.6,1.8,5,3.2
		c0.7,0.6,1,2.4,0.6,3.3c-0.3,0.7-1.9,1.1-3,1c-1,0-2.1-0.7-3-1.2c-1.4-0.8-2.8-1.8-4.3-2.9c-0.1,0.8-0.2,1.3-0.3,1.9
		c-0.3,3.6-2.5,4.9-5.8,3.6c-3.8-1.5-6.2-5.5-5.6-9.8c0.2-1.8,1-3.5,1.6-5.5c-2.6,0-5.3,0-8,0.1c-0.4,0-1,0.4-1.2,0.7
		c-1.7,3.9-4.6,6.6-8.8,8.3c5.7,9.3,11.4,18.4,17.1,27.6c4.4-7.7,10.6-10.7,17.6-8.7c6.4,1.9,10.7,7.9,10.3,14.6
		c-0.4,7.7-5.3,12.1-15.8,13.8c2.7,4.4,5.4,8.8,8.2,13.2C223,218.4,242.3,183.3,239.5,161.1z M223.1,171.6c2.2-2.3,5.9-2.3,8.2-0.1
		c2.4,2.3,2.4,6,0.1,8.3c-2.2,2.2-5.9,2.2-8.2,0C221,177.5,220.9,173.9,223.1,171.6z"/>
	<path class="st1" d="M110.7,89.7c-21.6,12-41.5,47.7-38.2,67.8c24.1,0,48.1,0,72.2,0c0-0.7,0-1.6,0.1-2.4c0.1-1,0-2.1,0.5-2.8
		c2.3-3.5,0.7-6.3-1.4-9.1c-0.7-0.9-1.2-2.1-1.9-3c-0.5-0.6-1.3-1.1-2-1.2c-2-0.2-3.1-1.1-3.6-3.1c-0.2-0.8-0.4-1.5-0.6-2.2
		c-1.9,1.6-3.6,3.3-5.5,4.6c-1.3,0.9-3,1.7-4.4,0c-1.4-1.7-0.4-3.2,0.8-4.3c1.7-1.6,3.7-2.9,5.8-4.5c-0.7-0.4-1.2-0.7-1.8-1
		c-2.8-1.4-3.4-3.7-1.4-6.1c1-1.1,0.7-1.8,0.1-2.9c-5.9-9.4-11.7-18.8-17.5-28.3C111.5,90.9,111.1,90.3,110.7,89.7z M113.2,153
		c-5.6,5.6-14.8,5.6-20.4-0.1c-5.6-5.6-5.5-14.7,0.1-20.3c5.6-5.5,14.6-5.5,20.2,0C118.7,138.2,118.8,147.4,113.2,153z M114,115.9
		c-2.2,2.3-6.1,2.4-8.4,0.1c-2.2-2.2-2.2-5.9,0-8.2c2.3-2.3,5.8-2.3,8.1-0.1C116.1,109.9,116.2,113.6,114,115.9z"/>
	<path class="st1" d="M108,228.4c1.7-2.6,3.3-5.1,5-7.5c0.8-1.1,0.7-1.8,0.1-2.9c-2.9-5.2-2.8-10.4,0.5-15.3
		c3.2-4.7,7.9-6.8,13.6-6.1c1.4,0.2,2.1-0.3,2.9-1.4c5.4-8.2,10.8-16.4,16.3-24.5c1.9-2.7,3.2-5,0.2-7.7c-0.1-0.1-0.2-0.3-0.2-0.4
		c-0.4-1.6-1.5-2-3.1-2c-22.9,0.1-45.9,0-68.8,0c-0.7,0-1.4,0.1-2.1,0.1C72.3,190.5,88.7,215.6,108,228.4z M120.2,167.1
		c-0.8-1.3-1.1-2.8,0.5-3.9c1.4-1,2.8-0.4,3.7,0.7c1.6,1.9,3,3.9,4.7,6.1c0.4-0.6,0.8-1.3,1.2-2c1.2-2.1,3.2-2.6,5.3-1.3
		c3.6,2.2,4.8,7.2,2.9,11.4c-2.6,5.8-9.7,8.3-14.9,5.2c-1-0.6-2-1.5-2.7-2.5c-2.5-3.5-1.4-6.1,2.7-7.1c0.4-0.1,0.8-0.2,1.2-0.4
		C123.2,171.1,121.6,169.2,120.2,167.1z M104.9,185.3c2.2-2.2,5.9-2.3,8.2-0.1c2.3,2.2,2.4,5.9,0.1,8.2c-2.3,2.4-5.8,2.5-8.1,0.2
		C102.7,191.4,102.6,187.7,104.9,185.3z M92.2,175.1c-0.3,2.6-0.4,5-0.8,7.4c-0.3,1.6-1,3.1-3.1,2.8c-2-0.2-2.4-1.9-2.3-3.5
		c0.1-2.4,0.6-4.8,0.9-7.4c-0.7,0.2-1.5,0.5-2.3,0.7c-2.5,0.7-4.4-0.5-4.8-3.1c-0.4-2.4,0.1-4.6,1.6-6.5c4.5-6.1,14.8-5.3,18,1.6
		c0.8,1.8,1,4.2,0.7,6.2c-0.6,3.5-3.2,4.4-6.2,2.6C93.3,175.6,92.8,175.4,92.2,175.1z"/>
	<path class="st1" d="M247.8,153.9c-0.3-30-18.3-55.6-36.9-67c-3.7,5.6-7.4,11.2-11.3,17c1,0.1,1.6,0.2,2.3,0.3
		c5.4,0.9,9.4,5.9,9.1,11.2c-0.2,3.5-1.8,6.1-4.9,7.6c-2.2,1.1-4.2,0.2-5-2c-0.3-0.8-0.6-1.6-0.9-2.5c-1.8,1.8-3.5,3.6-5.3,5.2
		c-1.2,1-2.7,1.7-4.2,0.3c-1.5-1.6-0.6-3.1,0.5-4.3c1.6-1.7,3.4-3.2,5.3-4.9c-3-1.6-3-1.6-4.7,1c-3.1,4.6-6.2,9.2-9.2,13.8
		c-2.3,3.5-4.6,7-6.7,10.1c1.7,2.4,3.5,4.3,4.5,6.6c1,2.3,1.2,4.9,1.7,7.6c2.1,0,4.4,0.1,6.7-0.1c2.3-0.2,4.6-0.6,6.9-1.1
		c2.4-0.6,4.6-0.6,6.9,0.4c1,0.5,2.2,0.7,3.4,0.7c13.2,0,26.5,0,39.7,0C246.4,154,247.1,154,247.8,153.9z M231,146.2
		c-5.5,5.6-14.7,5.7-20.4,0.1c-5.6-5.5-5.6-14.7,0-20.3c5.6-5.6,14.7-5.6,20.3,0C236.5,131.6,236.5,140.6,231,146.2z"/>
	<path class="st1" d="M154.2,246.8c-16.5-0.3-31.7-5.1-45.7-14c-2.4,3.7-4.8,7.2-7.1,10.8c36,23.9,80,18.8,105.8,1.9
		c-2.2-3.6-4.4-7.1-6.7-10.8C186.1,243,170.7,247.1,154.2,246.8z"/>
	<path class="st1" d="M202.3,86.3c2.3-3.5,4.6-7,7-10.6c-33.5-22-77-19.1-104.6-1.2c2.2,3.6,4.5,7.2,6.6,10.7
		C142.1,68.7,172.3,69.1,202.3,86.3z"/>
	<path class="st1" d="M242.9,161c-1.2,30.6-14.5,54.6-40,72.2c2.3,3.7,4.5,7.2,6.7,10.8c25.4-12.9,49.6-56.8,46-83
		C251.4,161,247.2,161,242.9,161z"/>
	<path class="st1" d="M69,157.3c1.6-29.9,15-53.4,39.9-70.5c-2-3.3-3.9-6.4-5.9-9.5c-0.3-0.4-0.6-0.8-0.9-1.2
		c-24.5,12-49.1,55.8-45.9,81.3C60.6,157.3,64.8,157.3,69,157.3z"/>
	<path class="st1" d="M69,161.1c-4.3,0-8.5,0-12.9,0c0.2,18.5,5.2,35.7,15,51.5c7.2,11.7,16.5,21.5,27.9,29.3
		c2.5-3.7,4.7-7.1,7.1-10.7C82.3,213.5,70,190.1,69,161.1z"/>
	<path class="st1" d="M248,101.7c-7.4-11.3-16.6-20.8-28-28.4c-2.5,3.7-4.8,7.2-7.1,10.7c24,17.3,36.8,40.6,38.3,70.1
		c3.7,0,7.3-0.1,10.8-0.1c0.6,0,1.2,0,1.9-0.1C264.8,139.2,258,116.9,248,101.7z"/>
</g>
</svg>
